HIERARCHY
ROOT pelvis
{
  OFFSET 0 100 0
  CHANNELS 6 Xposition Yposition Zposition Zrotation Xrotation Yrotation
  JOINT pelvis_right_femur
  {
    OFFSET -10.78128 -3.44521 -0.5502486
    CHANNELS 3 Zrotation Xrotation Yrotation
    JOINT right_femur_tibia
    {
      OFFSET -0.8047443 -44.0398 -0.1307829
      CHANNELS 3 Zrotation Xrotation Yrotation
      JOINT right_tibia_foot
      {
        OFFSET 3.006224 -47.83518 -5
        CHANNELS 3 Zrotation Xrotation Yrotation
        End Site
        {
          OFFSET 0 -5 15
        }
      }
    }
  }
  JOINT pelvis_left_femur
  {
    OFFSET 10.78128 -3.44521 -0.5502486
    CHANNELS 3 Zrotation Xrotation Yrotation
    JOINT left_femur_tibia
    {
      OFFSET 0.8047443 -44.0398 -0.1307829
      CHANNELS 3 Zrotation Xrotation Yrotation
      JOINT left_tibia_foot
      {
        OFFSET -4.370144 -48.10324 -4.275266
        CHANNELS 3 Zrotation Xrotation Yrotation
        End Site
        {
          OFFSET 0 -5 15
        }
      }
    }
  }
  JOINT pelvis_spine1
  {
    OFFSET 0 6.468898 -3.129235
    CHANNELS 3 Zrotation Xrotation Yrotation
    JOINT spine1
    {
      OFFSET 0 23.15396 4.99043
      CHANNELS 3 Zrotation Xrotation Yrotation
      JOINT spine2
      {
        OFFSET 0 20.79997 -5.064912
        CHANNELS 3 Zrotation Xrotation Yrotation
        JOINT neck
        {
          OFFSET 0 14.38658 9.616178
          CHANNELS 3 Zrotation Xrotation Yrotation
          End Site
          {
            OFFSET 0 20 0
          }
        }
      }
      JOINT right_manubrium
      {
        OFFSET -5.722621 16.35077 3.967754
        CHANNELS 3 Zrotation Xrotation Yrotation
        JOINT right_clavicle
        {
          OFFSET -13.16364 1.694482 -4.693211
          CHANNELS 3 Zrotation Xrotation Yrotation
          JOINT right_humerus
          {
            OFFSET -28.5034 -0.3100689 -2.792744
            CHANNELS 3 Zrotation Xrotation Yrotation
            JOINT right_radius
            {
              OFFSET -25.15693 0.02248979 -1.271978
              CHANNELS 3 Zrotation Xrotation Yrotation
              End Site
              {
                OFFSET -15 0 0
              }
            }
          }
        }
      }
      JOINT left_manubrium
      {
        OFFSET 5.722621 16.35077 3.967754
        CHANNELS 3 Zrotation Xrotation Yrotation
        JOINT left_clavicle
        {
          OFFSET 13.16364 1.694482 -4.693211
          CHANNELS 3 Zrotation Xrotation Yrotation
          JOINT left_humerus
          {
            OFFSET 29.39168 -1.063119 -2.237045
            CHANNELS 3 Zrotation Xrotation Yrotation
            JOINT left_radius
            {
              OFFSET 24.59957 -0.9528479 0.9047498
              CHANNELS 3 Zrotation Xrotation Yrotation
              End Site
              {
                OFFSET 15 -0 -0
              }
            }
          }
        }
      }
    }
  }
}
MOTION
Frames: 7
Frame Time: 0.0416666666667
0 103.5113 0 0.1827308 -0.07069159 0.02935194 4.046359 -19.30602 8.160214 -0 37.40657 -0 -6.28842 -14.8283 -3.349869 -6.521535 11.96174 -23.42724 -0 5.381105 -0 2.764087 -20.82274 24.73498 -2.065242 -3.69816 6.50338 1.583791 10.01709 -7.136607 1.222563 21.36765 6.125654 2.471576 -26.15053 9.405802 3.22178 -21.57767 10.48257 85.61971 33.40384 -17.55361 -0 0 19.13787 -10.68158 8.185786 4.562816 7.970298 -20.72722 1.306609 -94.51452 21.71497 24.60623 0 0 -9.543274 15.03244 15.38848 -4.52379
0.2026184 103.649 1.496236 -0.7135245 0.02177592 -0.07926922 5.60466 -21.54648 9.247831 -0 37.49908 -0 -7.15348 -14.35086 -4.367475 -5.504767 11.32861 -23.21707 -0 6.287094 -0 2.619073 -21.28296 24.28126 -2.096791 -3.439963 6.345867 1.740249 10.0056 -7.192241 1.172621 21.31445 6.29053 2.630708 -26.10997 9.369107 3.595345 -21.20306 10.71763 85.59183 33.82116 -17.67311 -0 0 18.5356 -10.62387 8.421109 4.737394 7.738997 -20.70238 1.065083 -94.28808 21.84359 24.15215 0 0 -10.2673 14.56933 15.00396 -3.979173
0.4384226 103.5811 3.676836 -0.9488033 3.087061 0.145791 7.236554 -29.29602 9.720985 -0 28.73106 -0 -5.612535 -11.77829 -3.984965 -5.671069 12.09753 -21.41479 -0 5.691108 -0 4.157446 -23.39926 23.2131 -2.252005 -3.126314 6.516705 1.596212 10.19177 -7.04023 0.9901408 21.27914 6.367277 2.830085 -25.26452 8.792149 3.929103 -21.00848 11.11263 84.90365 34.16491 -16.73682 -0 0 18.38055 -12.40065 9.096819 6.077826 7.25399 -20.6508 0.5885687 -93.73008 21.67849 24.01272 0 0 -10.9645 12.88087 14.16702 -2.108784
0.7000545 103.2935 6.323077 -1.511491 4.542177 0.5361061 8.833672 -33.36515 10.59453 -0 24.09234 -0 -5.308387 -10.11592 -4.308372 -5.207657 12.54262 -20.4175 -0 6.596808 -0 3.836926 -24.36764 21.63033 -2.321561 -2.99484 6.604484 1.523485 10.27367 -6.950045 0.9293309 21.27061 6.370641 2.919147 -24.81713 8.506377 4.149647 -20.87248 11.26213 84.49255 34.33722 -16.27945 -0 0 18.29352 -13.15092 9.408688 6.678908 7.026282 -20.64066 0.3396345 -93.4864 21.72153 23.91836 0 0 -11.40352 11.98619 13.82626 -1.00775
0.9341554 102.8146 9.803959 -1.934418 5.176051 1.088826 9.409977 -35.7066 9.924934 -0 18.98094 -0 -5.420912 -7.558554 -4.305397 -4.659106 13.65706 -18.64492 -0 9.27917 -0 1.747745 -24.31909 18.29901 -2.398045 -2.854926 6.715962 1.425578 10.36068 -6.840643 0.859085 21.2669 6.371971 3.000946 -24.34361 8.204713 4.310072 -20.78445 11.41532 84.06476 34.44653 -15.72123 -0 0 18.27651 -14.04866 9.711964 7.364064 6.783545 -20.59915 0.09538487 -93.23019 21.70647 23.8778 0 0 -11.75188 11.06921 13.41541 0.08138319
1.09102 102.3008 14.14794 -2.247405 4.893017 1.709897 9.139202 -34.9285 8.593165 -0 15.92135 -0 -6.116673 -6.017573 -4.384032 -3.938184 14.51868 -17.02466 -0 14.03329 -0 -1.812653 -22.5307 14.25146 -2.454419 -2.761103 6.816413 1.33927 10.42458 -6.739682 0.8181356 21.27063 6.350897 3.054417 -23.94975 7.964597 4.444719 -20.71597 11.50999 83.67828 34.51231 -15.24975 -0 0 18.29358 -14.71622 9.934075 7.881477 6.601228 -20.56688 -0.09406174 -93.04759 21.73672 23.85725 0 0 -12.0375 10.32941 13.12936 1.003066
1.125321 102.0208 19.39477 -2.364887 3.869974 2.254359 8.29242 -31.19648 6.766683 -0 14.90814 -0 -7.166345 -5.425825 -4.289029 -3.2126 14.63638 -15.214 -0 21.75275 -0 -5.698918 -18.49531 10.43108 -2.506565 -2.681733 6.924793 1.245804 10.4812 -6.631411 0.7842743 21.27877 6.320353 3.094565 -23.57091 7.739162 4.548061 -20.67472 11.58457 83.29009 34.5411 -14.75844 -0 0 18.35481 -15.35935 10.12426 8.374367 6.433903 -20.52511 -0.2618203 -92.88639 21.76159 23.86931 0 0 -12.26978 9.639986 12.86382 1.868676
